<svg width="136" height="38" viewBox="0 0 136 38" fill="none" xmlns="http://www.w3.org/2000/svg">
<g clip-path="url(#clip0_319_18)">
<path d="M16.0752 15.7228V13.1943C16.0752 12.6719 15.6517 12.2484 15.1293 12.2484H12.6008C12.0784 12.2484 11.6549 12.6719 11.6549 13.1943V15.7228C11.6549 16.2452 12.0784 16.6687 12.6008 16.6687H15.1293C15.6517 16.6687 16.0752 16.2452 16.0752 15.7228Z" fill="white"/>
<path d="M20.4832 20.1369V17.5599C20.4832 17.0509 20.0705 16.6383 19.5615 16.6383H16.9845C16.4755 16.6383 16.0629 17.0509 16.0629 17.5599V20.1369C16.0629 20.6459 16.4755 21.0586 16.9845 21.0586H19.5615C20.0705 21.0586 20.4832 20.6459 20.4832 20.1369Z" fill="white"/>
<path d="M11.6975 20.1187V17.5781C11.6975 17.059 11.2767 16.6383 10.7577 16.6383H8.21705C7.69799 16.6383 7.27721 17.059 7.27721 17.5781V20.1187C7.27721 20.6378 7.69799 21.0586 8.21705 21.0586H10.7577C11.2767 21.0586 11.6975 20.6378 11.6975 20.1187Z" fill="white"/>
<path d="M16.0813 24.5207V21.9559C16.0813 21.4435 15.6659 21.0281 15.1536 21.0281H12.5887C12.0764 21.0281 11.661 21.4435 11.661 21.9559V24.5207C11.661 25.0331 12.0764 25.4484 12.5887 25.4484H15.1536C15.6659 25.4484 16.0813 25.0331 16.0813 24.5207Z" fill="white"/>
<path d="M65.602 10.6597H59.7568L65.505 6.76085H71.3502L70.4407 8.70723L66.6753 16.4988H51.092L52.9778 12.6L56.7129 4.8084H54.7665L52.7534 0.909561H74.1819L72.2962 4.8084H60.6057L56.8706 12.6H64.6622L65.602 10.6536V10.6597Z" fill="#9723DA"/>
<path d="M90.3099 6.76008L88.4605 10.6589L85.6349 16.5041H81.7361L84.5617 10.6589H76.7701L73.9445 16.5041H70.0457L73.8111 8.71253L75.6605 4.81369L77.5462 0.914856H93.1294L90.3038 6.76008H90.3099ZM79.5654 4.81369L78.6255 6.76008H86.4171L87.357 4.81369H79.5654Z" fill="#9723DA"/>
<path d="M108.921 16.5041H105.022L108.788 8.71253L101.123 16.5041H96.806L96.6787 8.71253L92.9132 16.5041H89.0144L96.515 0.920919H100.832L101.063 12.1869L112.098 0.914856H116.415L108.915 16.4981L108.921 16.5041Z" fill="#9723DA"/>
<path d="M135.382 0.914856L133.496 4.81369H121.805L120.866 6.76008H132.556L130.707 10.6589H119.016L118.076 12.6053H129.767L127.881 16.5041H112.298L115.123 10.6589L116.973 6.76008L119.798 0.914856H135.382Z" fill="#9723DA"/>
<path d="M71.3502 25.1333L69.5008 29.0321L66.6752 34.8773H51.092L54.8575 27.0857L56.7068 23.1869H54.7605L52.7474 19.2881H74.1758L71.3502 25.1333ZM57.8104 29.0321L56.8706 30.9785H64.6622L65.602 29.0321H57.8104ZM60.6057 23.1869L59.6658 25.1333H67.4574L68.3973 23.1869H60.6057Z" fill="white"/>
<path d="M91.2498 23.187L87.5146 30.9786L85.6289 34.8774H70.0457L71.9314 30.9786L75.6665 23.187L77.5523 19.2882H93.1355L91.2498 23.187ZM79.5654 23.187L75.8302 30.9786H83.6219L87.357 23.187H79.5654Z" fill="white"/>
<path d="M110.219 23.187H98.5281L97.5882 25.1334H109.279L107.429 29.0322L104.604 34.8774H89.0205L90.9063 30.9786H102.597L103.537 29.0322H91.8461L93.6955 25.1334L96.5211 19.2882H112.104L110.219 23.187Z" fill="white"/>
<path d="M129.178 23.187H117.488L116.548 25.1334H128.238L126.389 29.0322L123.563 34.8774H107.98L109.866 30.9786H121.556L122.496 29.0322H110.806L112.655 25.1334L115.481 19.2882H131.064L129.178 23.187Z" fill="white"/>
<path d="M26.4241 38H32.8393C33.385 38 33.9064 37.7878 34.3006 37.4119L44.1841 27.874C44.5964 27.4799 44.8268 26.9281 44.8268 26.3581V24.8544C44.8268 23.6902 43.887 22.7503 42.7228 22.7503H40.3641C39.1635 22.7503 38.2115 23.7508 38.26 24.9453L38.2904 25.6426C38.3389 26.8311 37.399 27.8255 36.2106 27.8376L26.3998 27.9407C25.2477 27.9528 24.314 28.8927 24.314 30.0447V35.9021C24.314 37.0663 25.2538 38.0061 26.418 38.0061L26.4241 38Z" fill="#4A289F"/>
<path d="M25.6919 0.127228H32.9378C33.4229 0.127228 33.8898 0.315197 34.2354 0.654753L44.2584 10.3321C44.6222 10.6838 44.8284 11.1689 44.8284 11.6782V13.5155C44.8284 14.5462 43.9916 15.3891 42.9548 15.3891H40.4384C39.444 15.3891 38.6254 14.6129 38.5708 13.6246L38.4799 12.0723C38.4253 11.09 37.6128 10.32 36.6305 10.3079L25.6616 10.1926C24.6369 10.1805 23.8123 9.34982 23.8123 8.31903V2.00085C23.8123 0.970055 24.649 0.127228 25.6859 0.127228H25.6919Z" fill="#4A289F"/>
<path d="M20.2339 27.9366L7.77947 27.8335C6.35455 27.8214 5.20855 26.6632 5.20855 25.2444L5.25706 12.8445C5.25706 11.3711 6.45763 10.1826 7.93106 10.1826H17.954C19.6094 10.1826 20.9555 8.83651 20.9555 7.18117V3.10649C20.9555 1.39658 19.5669 0.00804138 17.857 0.00804138H0V26.4995C0 27.0088 0.151588 27.5061 0.430509 27.9366L6.34242 36.8499C6.82144 37.5715 7.63395 38.008 8.50709 38.008H20.2097C21.6406 38.008 22.8048 36.8439 22.8048 35.4129V30.5378C22.8048 29.1129 21.6588 27.9548 20.2339 27.9426V27.9366Z" fill="#9723DA"/>
<path d="M30.7122 24.9512C33.7529 24.9512 36.2179 22.4862 36.2179 19.4455C36.2179 16.4048 33.7529 13.9399 30.7122 13.9399C27.6715 13.9399 25.2065 16.4048 25.2065 19.4455C25.2065 22.4862 27.6715 24.9512 30.7122 24.9512Z" fill="white"/>
</g>
<defs>
<clipPath id="clip0_319_18">
<rect width="135.38" height="38" fill="white"/>
</clipPath>
</defs>
</svg>
